<svg width="214" height="58" xmlns="http://www.w3.org/2000/svg" xmlns:xlink="http://www.w3.org/1999/xlink" xml:space="preserve" overflow="hidden"><defs><clipPath id="clip0"><rect x="14" y="18" width="214" height="58"/></clipPath><clipPath id="clip1"><rect x="14" y="18" width="214" height="58"/></clipPath><clipPath id="clip2"><rect x="15" y="19" width="213" height="56"/></clipPath><clipPath id="clip3"><rect x="15" y="19" width="213" height="56"/></clipPath><clipPath id="clip4"><rect x="15" y="19" width="213" height="56"/></clipPath><linearGradient x1="20.6316" y1="26.5263" x2="0.982456" y2="26.5263" gradientUnits="userSpaceOnUse" spreadMethod="pad" id="fill5"><stop offset="0" stop-color="#FFFFFF" stop-opacity="1"/><stop offset="1" stop-color="#FDFDFE" stop-opacity="1"/><stop offset="1" stop-color="#F6F8FC" stop-opacity="1"/><stop offset="1" stop-color="#EBEEF7" stop-opacity="1"/></linearGradient><linearGradient x1="24.5614" y1="26.5263" x2="44.2105" y2="26.5263" gradientUnits="userSpaceOnUse" spreadMethod="pad" id="fill6"><stop offset="0" stop-color="#FFFFFF" stop-opacity="1"/><stop offset="1" stop-color="#FDFDFE" stop-opacity="1"/><stop offset="1" stop-color="#F6F8FC" stop-opacity="1"/><stop offset="1" stop-color="#EBEEF7" stop-opacity="1"/></linearGradient><linearGradient x1="45.193" y1="25.5439" x2="20.6316" y2="30.4561" gradientUnits="userSpaceOnUse" spreadMethod="pad" id="fill7"><stop offset="0" stop-color="#EBEEF7" stop-opacity="1"/><stop offset="0" stop-color="#F6F8FC" stop-opacity="1"/><stop offset="0" stop-color="#FDFDFE" stop-opacity="1"/><stop offset="1" stop-color="#FFFFFF" stop-opacity="1"/></linearGradient><linearGradient x1="14.7368" y1="28.4912" x2="1.96491" y2="30.4561" gradientUnits="userSpaceOnUse" spreadMethod="pad" id="fill8"><stop offset="0" stop-color="#FFFFFF" stop-opacity="1"/><stop offset="1" stop-color="#FDFDFE" stop-opacity="1"/><stop offset="1" stop-color="#F6F8FC" stop-opacity="1"/><stop offset="1" stop-color="#EBEEF7" stop-opacity="1"/></linearGradient></defs><g clip-path="url(#clip0)" transform="translate(-14 -18)"><g clip-path="url(#clip1)"><g clip-path="url(#clip2)"><g clip-path="url(#clip3)"><g clip-path="url(#clip4)"><path d="M78.4982 16.3088 78.4982 16.1123C78.5965 13.7544 77.7123 11.4947 76.1404 9.82456 74.3719 8.15439 71.7193 7.27018 68.4772 7.27018L57.7684 7.27018 57.7684 34.1895 63.7614 34.1895 63.7614 25.4456 67.2 25.4456 72.407 34.1895 79.2842 34.1895 73.2912 24.1684C76.6316 22.9895 78.6947 19.7474 78.4982 16.3088ZM72.407 16.407C72.407 18.8632 70.7368 20.3368 67.986 20.3368L63.8596 20.3368 63.8596 12.4772 67.8877 12.4772C70.8351 12.5754 72.407 13.8526 72.407 16.407ZM163.579 7.17193 153.46 34.2877 159.551 34.2877 161.614 28.4912 171.046 28.4912 173.109 34.2877 179.396 34.2877 169.277 7.17193 163.579 7.17193ZM169.277 23.2842 163.481 23.2842 166.428 15.0316 169.277 23.2842ZM197.081 20.4351 205.137 7.27018 198.456 7.27018 193.642 15.8175 188.926 7.27018 182.049 7.27018 190.007 20.5333 181.656 34.1895 188.337 34.1895 193.446 25.1509 198.456 34.1895 205.333 34.1895 197.081 20.4351ZM90.8772 28.9825 90.8772 23.2842 101.684 23.2842 101.684 18.0772 90.8772 18.0772 90.8772 12.5754 103.158 12.5754 103.158 7.36842 84.8842 7.36842 84.8842 34.2877 96.1825 34.2877 98.9333 29.0807C98.9333 29.0807 90.8772 28.9825 90.8772 28.9825ZM142.554 7.27018 136.463 16.014 130.274 7.27018 130.175 7.27018 123.986 18.9614 123.986 34.1895 129.881 34.1895 129.881 17.4877 136.267 25.7404 136.267 25.8386 136.561 25.8386 142.947 17.4877 142.947 34.1895 148.842 34.1895 148.842 7.27018 142.554 7.27018Z" fill="#DC1C2E" fill-rule="nonzero" fill-opacity="1" transform="matrix(1.0131 0 0 1 15 19)"/><path d="M116.912 6.87719 102.175 34.386 110.035 34.386 123.789 6.87719Z" fill="#003DA5" fill-rule="nonzero" fill-opacity="1" transform="matrix(1.0131 0 0 1 15 19)"/><path d="M208.379 6.38596C209.46 6.38596 210.344 7.27018 210.344 8.35088 210.344 9.43158 209.46 10.3158 208.379 10.3158 207.298 10.3158 206.414 9.43158 206.414 8.35088 206.316 7.36842 207.102 6.48421 208.182 6.38596 208.281 6.38596 208.379 6.38596 208.379 6.38596ZM208.281 6.6807C207.396 6.6807 206.709 7.46667 206.709 8.35088 206.709 9.23509 207.396 10.0211 208.281 10.0211 208.281 10.0211 208.379 10.0211 208.379 10.0211 209.263 10.0211 209.951 9.23509 209.951 8.35088 209.951 7.46667 209.263 6.6807 208.281 6.6807 208.379 6.6807 208.281 6.6807 208.281 6.6807ZM207.986 9.52982 207.593 9.52982 207.593 7.36842C207.789 7.36842 207.986 7.27018 208.182 7.27018 208.379 7.27018 208.674 7.36842 208.87 7.46667 208.968 7.56491 209.067 7.7614 209.067 7.9579 209.067 8.15439 208.87 8.44912 208.674 8.44912 208.87 8.44912 208.968 8.64561 209.067 8.94035 209.165 9.13684 209.165 9.33333 209.165 9.52982L208.772 9.52982C208.674 9.43158 208.674 9.23509 208.575 8.94035 208.477 8.64561 208.379 8.54737 208.084 8.54737L207.789 8.54737 207.789 9.52982 207.986 9.52982ZM207.986 8.25263 208.281 8.25263C208.575 8.25263 208.87 8.15439 208.87 7.85965 208.87 7.66316 208.772 7.46667 208.281 7.46667L207.986 7.46667 207.986 8.25263Z" fill="#DC1C2E" fill-rule="nonzero" fill-opacity="1" transform="matrix(1.0131 0 0 1 15 19)"/><path d="M19.4526 50.9895C19.2561 50.9895 19.0596 50.8912 18.9614 50.793L16.6035 48.4351 14.0491 45.8807 13.7544 45.4877 13.4596 45.193 13.1649 44.8982 12.7719 44.5053 12.4772 44.2105 12.1825 43.9158 11.7895 43.4246 11.4947 43.1298 11.2 42.8351 10.9053 42.4421 10.6105 42.1474 10.3158 41.8526 10.0211 41.5579 9.72632 41.2632 9.43158 40.9684C5.20702 36.3509 2.65263 32.814 1.76842 30.5544L1.76842 30.4561C1.76842 30.3579 1.76842 30.3579 1.67018 30.1614L1.67018 29.9649C0.884211 27.8035 0.294737 25.4456 0.0982456 23.0877-0.196491 20.1404 -1.36343e-16 17.2912 0.785965 14.4421L0.785965 14.3439C1.17895 12.9684 1.76842 11.6912 2.45614 10.414 3.53684 8.54737 5.01053 6.77895 6.6807 5.40351 7.46667 4.71579 8.44912 4.12632 9.43158 3.83158L9.52982 3.83158C11.4947 2.1614 13.9509 1.17895 16.5053 1.17895L17.3895 1.17895C18.8632 0.392982 20.4351 0 22.007 0L22.5965 0C24.1684 0 25.8386 0.392982 27.214 1.17895L28.0982 1.17895C30.6526 1.17895 33.1088 2.1614 35.0737 3.83158L35.1719 3.83158C36.1544 4.22456 37.1368 4.71579 37.9228 5.40351 39.593 6.77895 41.0667 8.54737 42.1474 10.414 42.9333 11.6912 43.5228 13.0667 43.9158 14.4421L43.9158 14.6386C43.9158 14.7368 43.9158 14.7368 44.014 14.8351L44.014 15.0316C44.014 15.1298 44.014 15.2281 44.1123 15.3263L44.1123 15.4246C44.1123 15.5228 44.1123 15.6211 44.2105 15.6211L44.2105 15.8175C44.2105 15.9158 44.3088 16.1123 44.3088 16.2105L44.3088 16.3088C44.3088 16.5053 44.407 16.6035 44.407 16.8 44.6035 17.8807 44.7018 18.9614 44.7018 20.0421L44.7018 20.5333C44.7018 23.7754 44.1123 27.0175 42.9333 30.0632 42.9333 30.1614 42.9333 30.1614 42.8351 30.1614 42.7368 30.2596 42.7368 30.3579 42.7368 30.4561L42.7368 30.6526C42.7368 30.7509 42.7368 30.7509 42.6386 30.7509 42.6386 30.7509 42.6386 30.7509 42.6386 30.7509L42.6386 30.8491C42.6386 30.9474 42.6386 30.9474 42.5404 31.0456 42.5404 31.1439 42.5404 31.1439 42.4421 31.1439 42.4421 31.1439 42.4421 31.1439 42.4421 31.1439L42.3439 31.2421C42.3439 31.3404 42.2456 31.3404 42.2456 31.4386L42.2456 31.5368C42.1474 31.8316 41.9509 32.1263 41.7544 32.4211 39.8877 35.2702 37.8246 37.9228 35.5649 40.3789 35.4667 40.4772 35.3684 40.5754 35.2702 40.7719 35.1719 40.8702 35.0737 40.9684 34.9754 41.1649 34.8772 41.2632 34.7789 41.3614 34.6807 41.5579 34.5825 41.6561 34.4842 41.7544 34.386 41.9509 34.2877 42.0491 34.1895 42.1474 34.0912 42.3439 33.993 42.4421 33.8947 42.5404 33.7965 42.7368 33.6982 42.8351 33.6 42.9333 33.5018 43.1298 33.4035 43.2281 33.3053 43.3263 33.207 43.5228 33.1088 43.6211 33.0105 43.8175 32.9123 43.9158L32.5193 44.3088C32.4211 44.407 32.3228 44.6035 32.2246 44.7018 29.4737 47.6491 27.0175 50.007 25.8386 51.186 25.7404 51.2842 25.5439 51.3825 25.3474 51.3825L19.4526 51.3825 19.4526 50.9895ZM20.6316 56.393C20.4351 56.393 20.2386 56.2947 20.1404 56.0982L19.3544 53.4456C19.1579 53.4456 18.9614 53.1509 18.9614 52.9544L18.9614 52.6596C18.9614 52.3649 19.1579 52.1684 19.3544 52.1684 19.3544 52.1684 19.3544 52.1684 19.4526 52.1684L24.6596 52.1684C24.9544 52.1684 25.1509 52.3649 25.1509 52.5614 25.1509 52.5614 25.1509 52.5614 25.1509 52.6596L25.1509 52.9544C25.1509 53.1509 24.9544 53.3474 24.7579 53.4456L23.9719 56.0982C23.8737 56.2947 23.6772 56.393 23.4807 56.393L20.6316 56.393ZM27.7053 56C26.7228 56 25.9368 55.214 25.9368 54.2316 25.9368 53.2491 26.7228 52.4632 27.7053 52.4632 28.6877 52.4632 29.4737 53.2491 29.4737 54.2316 29.5719 55.1158 28.8842 55.9018 28 56 27.9018 56 27.8035 56 27.7053 56Z" fill="#FFFFFF" fill-rule="nonzero" fill-opacity="1" transform="matrix(1.0131 0 0 1 15 19)"/><path d="M27.8035 52.5614C28.6877 52.5614 29.4737 53.3474 29.4737 54.2316 29.4737 55.1158 28.6877 55.9018 27.8035 55.9018 26.9193 55.9018 26.1333 55.1158 26.1333 54.2316 26.1333 53.3474 26.8211 52.5614 27.7053 52.5614 27.7053 52.5614 27.8035 52.5614 27.8035 52.5614Z" fill="#FFFFFF" fill-rule="nonzero" fill-opacity="1" transform="matrix(1.0131 0 0 1 15 19)"/><path d="M2.1614 29.6702C2.25965 29.8667 2.25965 29.8667 2.25965 29.9649 3.63509 32.6175 5.40351 35.1719 7.36842 37.4316 10.2175 40.8702 13.7544 44.6035 16.407 47.2561L19.0596 49.9088 19.2561 50.1053 20.6316 50.1053C12.7719 32.814 16.3088 9.0386 17.2912 3.24211 10.6105 4.42105 4.81404 8.44912 1.37544 14.3439L1.37544 14.6386 1.27719 14.5404C0.0982456 19.5509 0.392982 24.8561 2.1614 29.6702Z" fill="url(#fill5)" fill-rule="nonzero" transform="matrix(1.0131 0 0 1 15 19)"/><path d="M26.9193 3.24211C33.6 4.42105 39.3965 8.44912 42.7368 14.3439L42.7368 14.6386 42.8351 14.5404C44.1123 19.5509 43.8175 24.8561 41.9509 29.6702 41.8526 29.8667 41.8526 29.8667 41.8526 29.9649 40.4772 32.6175 38.7088 35.1719 36.7439 37.4316 33.8947 40.8702 30.3579 44.6035 27.7053 47.2561L24.8561 50.1053 23.4807 50.1053C31.3404 32.814 27.9018 9.0386 26.9193 3.24211Z" fill="url(#fill6)" fill-rule="nonzero" transform="matrix(1.0131 0 0 1 15 19)"/><path d="M35.6632 30.2596C32.7158 37.1368 29.1789 43.6211 25.0526 49.8105 27.607 47.3544 31.6351 43.2281 35.1719 39.2982 35.7614 38.7088 36.2526 38.0211 36.7439 37.4316 38.7088 35.2702 40.3789 32.814 41.7544 30.1614 41.7544 30.0632 41.7544 30.0632 41.8526 30.0632 41.8526 30.0632 41.8526 30.0632 41.8526 30.0632 41.8526 29.9649 41.8526 29.9649 41.9509 29.9649L41.9509 29.9649C41.9509 29.8667 41.9509 29.7684 42.0491 29.6702 43.9158 24.8561 44.2105 19.5509 42.9333 14.5404L42.8351 14.3439C40.8702 11.0035 38.1193 8.25263 34.8772 6.28772 36.0561 10.3158 38.9053 22.3018 35.6632 30.2596Z" fill="url(#fill7)" fill-rule="nonzero" transform="matrix(1.0131 0 0 1 15 19)"/><path d="M2.1614 29.6702C2.25965 29.8667 2.25965 29.8667 2.25965 29.9649 3.63509 32.6175 5.40351 35.1719 7.36842 37.4316 8.15439 38.3158 8.94035 39.2982 9.82456 40.2807 13.1649 43.9158 16.7018 47.5509 19.0596 49.9088 17.8807 48.0421 11.986 39.0035 8.44912 30.2596 5.30526 22.3018 8.05614 10.3158 9.23509 6.18947 5.99298 8.15439 3.24211 10.9053 1.27719 14.2456L1.17895 14.4421C0 19.4526 0.294737 24.8561 2.1614 29.6702Z" fill="url(#fill8)" fill-rule="nonzero" transform="matrix(1.0131 0 0 1 15 19)"/><path d="M22.1053 0.294737C21.614 0.294737 18.9614 0.294737 17.3895 1.57193 14.6386 1.27719 11.7895 2.1614 9.72632 4.12632 8.94035 4.12632 5.6 5.99298 2.94737 10.5123 2.25965 11.6912 1.67018 12.9684 1.27719 14.3439 2.75088 12.1825 5.30526 11.0035 7.9579 11.2982 8.25263 11.1018 10.9053 8.25263 16.3088 9.23509 17.0947 8.44912 19.7474 7.66316 22.007 7.56491 24.2667 7.56491 27.0175 8.44912 27.7053 9.23509 33.1088 8.25263 35.7614 11.1018 36.0561 11.2982 38.7088 11.0035 41.2632 12.1825 42.7368 14.3439 42.3439 12.9684 41.7544 11.6912 41.0667 10.5123 38.414 5.99298 35.1719 4.12632 34.2877 4.12632 32.2246 2.1614 29.4737 1.27719 26.6246 1.57193 25.2491 0.294737 22.5965 0.294737 22.1053 0.294737" fill="#DB1F2E" fill-rule="nonzero" fill-opacity="1" transform="matrix(1.0131 0 0 1 15 19)"/><path d="M17.3895 1.57193C14.6386 1.27719 11.7895 2.1614 9.72632 4.12632 8.94035 4.12632 5.6 5.99298 2.94737 10.5123 2.25965 11.6912 1.67018 12.9684 1.27719 14.3439 2.75088 12.1825 5.30526 11.0035 7.9579 11.2982 8.25263 11.1018 10.9053 8.25263 16.3088 9.23509 16.8982 4.91228 17.3895 1.57193 17.3895 1.57193Z" fill="#C5212A" fill-rule="nonzero" fill-opacity="1" transform="matrix(1.0131 0 0 1 15 19)"/><path d="M8.05614 11.3965 8.05614 11.3965C8.8421 7.27018 9.72632 4.22456 9.72632 4.22456 8.94035 4.22456 5.6 6.09123 2.94737 10.6105 2.25965 11.7895 1.67018 13.0667 1.27719 14.4421 2.84912 12.2807 5.40351 11.1018 8.05614 11.3965Z" fill="#A31E22" fill-rule="nonzero" fill-opacity="1" transform="matrix(1.0131 0 0 1 15 19)"/><path d="M26.8211 1.57193C29.6702 1.27719 32.4211 2.1614 34.4842 4.12632 35.2702 4.12632 38.6105 5.99298 41.2632 10.5123 41.9509 11.6912 42.5404 12.9684 42.9333 14.3439 41.4597 12.1825 38.9053 11.0035 36.2526 11.2982 35.9579 11.1018 33.3053 8.25263 27.9018 9.23509 27.3123 4.91228 26.8211 1.57193 26.8211 1.57193Z" fill="#C5212A" fill-rule="nonzero" fill-opacity="1" transform="matrix(1.0131 0 0 1 15 19)"/><path d="M36.1544 11.3965 36.1544 11.3965C35.3684 7.27018 34.4842 4.22456 34.4842 4.22456 35.2702 4.22456 38.6105 6.09123 41.2632 10.6105 41.9509 11.7895 42.5404 13.0667 42.9333 14.4421 41.4597 12.2807 38.807 11.1018 36.1544 11.3965Z" fill="#A31E22" fill-rule="nonzero" fill-opacity="1" transform="matrix(1.0131 0 0 1 15 19)"/><path d="M22.5965 53.0526 22.5965 53.0526 19.6491 53.0526 20.6316 56 22.5965 56Z" fill="#414141" fill-rule="nonzero" fill-opacity="1" transform="matrix(1.0131 0 0 1 15 19)"/><path d="M22.5965 53.0526 22.5965 53.0526 24.5614 53.0526 23.5789 56 22.5965 56ZM24.7579 52.8561 19.5509 52.8561 19.5509 52.5614 24.7579 52.5614C24.7579 52.5614 24.7579 52.8561 24.7579 52.8561Z" fill="#626467" fill-rule="nonzero" fill-opacity="1" transform="matrix(1.0131 0 0 1 15 19)"/><path d="M36.5474 27.4105C34.386 25.5439 31.4386 24.7579 28.5895 25.1509 28.2947 24.9544 26.3298 23.9719 22.2035 23.6772 19.9439 23.6772 17.7825 24.1684 15.8175 25.1509 10.5123 24.6596 7.85965 27.4105 7.85965 27.4105 5.79649 27.4105 3.83158 28.2947 2.35789 29.7684 2.45614 29.9649 2.45614 29.9649 2.45614 30.0632 4.42105 34.9754 14.9333 45.6842 19.6491 50.2035L24.9544 50.2035C29.6702 45.6842 40.0842 35.0737 42.1474 30.0632 42.2456 29.8667 42.2456 29.8667 42.2456 29.7684 41.8526 29.5719 39.6912 27.3123 36.5474 27.4105Z" fill="#1B459B" fill-rule="nonzero" fill-opacity="1" transform="matrix(1.0131 0 0 1 15 19)"/><path d="M28.4912 25.1509C33.7965 24.6596 36.4491 27.4105 36.4491 27.4105 38.5123 27.4105 40.4772 28.2947 41.9509 29.7684 41.8526 29.9649 41.8526 29.9649 41.8526 30.0632 39.8877 34.9754 29.3754 45.6842 24.6596 50.2035L23.186 50.2035C26.9193 42.4421 28.2947 33.3053 28.4912 25.1509Z" fill="#233F85" fill-rule="nonzero" fill-opacity="1" transform="matrix(1.0131 0 0 1 15 19)"/><path d="M36.5474 27.4105 36.5474 27.4105C38.6105 27.4105 40.5754 28.2947 42.0491 29.7684 41.9509 29.9649 41.9509 29.9649 41.9509 30.0632 39.986 34.9754 29.4737 45.6842 24.7579 50.2035 24.7579 50.2035 31.7333 40.0842 35.6632 30.2596 35.9579 29.3754 36.2526 28.393 36.5474 27.4105Z" fill="#22346B" fill-rule="nonzero" fill-opacity="1" transform="matrix(1.0131 0 0 1 15 19)"/><path d="M15.7193 25.1509C10.414 24.6596 7.7614 27.4105 7.7614 27.4105 5.69825 27.4105 3.73333 28.2947 2.25965 29.7684 2.35789 29.9649 2.35789 29.9649 2.35789 30.0632 4.32281 34.9754 14.8351 45.6842 19.5509 50.2035L21.0246 50.2035C17.2912 42.4421 15.9158 33.3053 15.7193 25.1509Z" fill="#233F85" fill-rule="nonzero" fill-opacity="1" transform="matrix(1.0131 0 0 1 15 19)"/><path d="M7.66316 27.4105 7.66316 27.4105C5.6 27.4105 3.63509 28.2947 2.1614 29.7684 2.25965 29.9649 2.25965 29.9649 2.25965 30.0632 4.22456 34.9754 14.7368 45.6842 19.4526 50.2035 19.4526 50.2035 12.4772 40.0842 8.54737 30.2596 8.25263 29.3754 7.9579 28.393 7.66316 27.4105Z" fill="#22346B" fill-rule="nonzero" fill-opacity="1" transform="matrix(1.0131 0 0 1 15 19)"/><path d="M10.5123 17.0947 10.5123 17.0947C10.6105 16.6035 10.3158 16.1123 9.92281 15.8175 9.43158 15.5228 8.74386 15.5228 8.25263 15.8175 7.46667 16.1123 6.6807 16.3088 5.99298 16.6035L6.28772 22.4982C6.77895 22.3018 7.07368 22.2035 7.56491 22.007 7.56491 21.2211 7.46667 20.8281 7.46667 20.0421 7.7614 19.9439 7.85965 19.8456 8.15439 19.7474 8.64561 20.3368 8.8421 20.7298 9.33333 21.3193 9.82456 21.1228 10.3158 21.0246 10.807 20.9263 10.3158 20.3368 9.92281 19.7474 9.43158 19.0596 10.1193 18.6667 10.6105 17.8807 10.5123 17.0947ZM9.23509 17.586C9.23509 18.1754 8.8421 18.6667 8.35088 18.7649 7.9579 18.8632 7.85965 18.9614 7.46667 19.0596 7.46667 18.3719 7.36842 18.0772 7.36842 17.3895 7.7614 17.2912 7.85965 17.193 8.25263 17.0947 8.8421 16.8 9.13684 16.9965 9.23509 17.586ZM29.4737 14.0491C28.6877 15.9158 27.9018 17.7825 27.1158 19.7474 27.607 19.8456 27.9018 19.8456 28.4912 19.9439 28.6877 19.4526 28.786 19.2561 28.9825 18.7649 29.6702 18.8632 30.3579 18.9614 31.0456 19.1579 31.2421 19.6491 31.3404 20.0421 31.4386 20.5333 32.0281 20.6316 32.2246 20.7298 32.814 20.8281L30.7509 14.3439C30.3579 14.1474 29.9649 14.0491 29.4737 14.0491ZM30.6526 17.8807C30.1614 17.7825 29.8667 17.7825 29.3754 17.6842 29.6702 16.9965 29.7684 16.7018 30.0632 16.014 30.3579 16.6035 30.5544 17.193 30.6526 17.8807ZM36.9403 18.8632C37.5298 18.0772 38.2175 17.3895 38.807 16.6035L37.3333 16.1123C36.9403 16.6035 36.5474 17.0947 36.2526 17.586 35.9579 16.8982 35.6632 16.1123 35.3684 15.4246 34.8772 15.2281 34.386 15.1298 33.8947 15.0316 34.4842 16.2105 34.9754 17.2912 35.4667 18.4702 34.7789 19.2561 34.1895 20.1404 33.5018 20.9263 34.0912 21.1228 34.386 21.1228 34.9754 21.3193 35.4667 20.6316 35.6632 20.3368 36.1544 19.6491 36.4491 20.4351 36.8421 21.2211 37.1368 22.007 37.6281 22.2035 38.1193 22.4 38.6105 22.5965 38.0211 21.3193 37.4316 20.0421 36.9403 18.8632ZM13.5579 19.2561 13.5579 17.9789C14.3439 17.7825 15.1298 17.6842 15.9158 17.586L15.9158 16.407C15.1298 16.5053 14.3439 16.7018 13.5579 16.8L13.5579 15.6211C14.4421 15.4246 15.3263 15.3263 16.3088 15.1298L16.3088 13.9509C14.9333 14.1474 13.5579 14.4421 12.2807 14.7368 12.3789 16.7018 12.3789 18.6667 12.4772 20.6316 13.2632 20.4351 14.1474 20.2386 14.9333 20.1404 15.1298 19.6491 15.3263 19.2561 15.5228 18.8632 14.9333 18.9614 14.2456 19.0596 13.5579 19.2561ZM24.7579 13.5579C24.2667 14.1474 23.8737 14.8351 23.3825 15.4246 22.8912 14.7368 22.4982 14.1474 22.007 13.4596 21.5158 14.3439 21.1228 15.2281 20.6316 16.1123L20.6316 19.4526 21.9088 19.4526 21.9088 15.7193C22.4 16.3088 22.8912 16.8982 23.2842 17.586L23.3825 17.586 24.8561 15.8175 24.8561 19.5509C25.2491 19.5509 25.7404 19.5509 26.1333 19.6491 26.1333 17.6842 26.2316 15.7193 26.2316 13.6561 25.6421 13.6561 25.3474 13.5579 24.7579 13.5579Z" fill="#1B459B" fill-rule="nonzero" fill-opacity="1" transform="matrix(1.0131 0 0 1 15 19)"/><path d="M17.586 19.7474C18.5684 17.6842 19.6491 15.6211 20.7298 13.5579 20.1404 13.5579 19.6491 13.5579 19.0596 13.6561 17.9789 15.7193 16.9965 17.8807 16.014 20.0421 16.6035 19.8456 17.0947 19.7474 17.586 19.7474Z" fill="#DB1F2E" fill-rule="nonzero" fill-opacity="1" transform="matrix(1.0131 0 0 1 15 19)"/><path d="M27.8035 52.5614C28.6877 52.5614 29.4737 53.3474 29.4737 54.2316 29.4737 55.1158 28.6877 55.9018 27.8035 55.9018 26.9193 55.9018 26.1333 55.1158 26.1333 54.2316 26.1333 53.3474 26.8211 52.5614 27.7053 52.5614 27.7053 52.5614 27.8035 52.5614 27.8035 52.5614ZM27.7053 52.7579C27.0175 52.7579 26.4281 53.3474 26.4281 54.1333 26.4281 54.1333 26.4281 54.1333 26.4281 54.1333 26.4281 54.9193 27.0175 55.5088 27.7053 55.5088 27.7053 55.5088 27.7053 55.5088 27.8035 55.5088 28.4912 55.5088 29.0807 54.9193 29.0807 54.1333 29.0807 54.1333 29.0807 54.1333 29.0807 54.1333 29.0807 53.3474 28.4912 52.7579 27.7053 52.7579ZM27.4105 55.1158 27.1158 55.1158 27.1158 53.2491 27.607 53.2491C27.8035 53.2491 28 53.2491 28.1965 53.3474 28.2947 53.4456 28.393 53.5439 28.393 53.7404 28.393 53.9368 28.1965 54.1333 28 54.1333 28.1965 54.1333 28.2947 54.3298 28.2947 54.5263 28.2947 54.7228 28.2947 54.8211 28.393 55.0175L28.0982 55.0175C28 54.8211 28 54.7228 28 54.5263 28 54.3298 27.8035 54.2316 27.607 54.2316L27.4105 54.2316 27.4105 55.1158ZM27.4105 54.1333 27.607 54.1333C27.8035 54.1333 28.0982 54.0351 28.0982 53.8386 28.0982 53.6421 28 53.5439 27.607 53.5439L27.4105 53.5439 27.4105 54.1333Z" fill="#626467" fill-rule="nonzero" fill-opacity="1" transform="matrix(1.0131 0 0 1 15 19)"/><path d="M57.7684 53.9368 57.7684 43.5228 59.6351 43.5228 59.6351 54.0351 57.7684 53.9368ZM65.9228 53.9368 65.9228 45.0947 62.7789 45.0947 62.7789 43.5228 70.9333 43.5228 70.9333 45.0947 67.7895 45.0947 67.7895 53.9368 65.9228 53.9368ZM80.3649 53.9368 79.5789 51.8737 74.7649 51.8737 73.979 53.9368 71.9158 53.9368 76.0421 43.4246 78.3018 43.4246 82.4281 53.9368 80.3649 53.9368ZM77.2211 45.2912 75.3544 50.3018 79.0877 50.3018 77.2211 45.2912ZM84.9825 53.9368 84.9825 43.5228 86.8491 43.5228 86.8491 52.3649 91.4667 52.3649 91.4667 53.9368 84.9825 53.9368ZM94.7088 53.9368 94.7088 43.5228 96.5754 43.5228 96.5754 54.0351 94.7088 53.9368ZM107.677 53.9368 106.891 51.8737 102.077 51.8737 101.291 53.9368 99.2281 53.9368 103.354 43.4246 105.614 43.4246 109.74 53.9368 107.677 53.9368ZM104.533 45.2912 102.667 50.3018 106.4 50.3018 104.533 45.2912Z" fill="#0E2683" fill-rule="nonzero" fill-opacity="1" transform="matrix(1.0131 0 0 1 15 19)"/></g></g></g></g></g></svg>